<svg xmlns="http://www.w3.org/2000/svg" version="1.1" xmlns:xlink="http://www.w3.org/1999/xlink" xmlns:svgjs="http://svgjs.dev/svgjs" width="1920" height="1800" preserveAspectRatio="none" viewBox="0 0 1920 1800"><g mask="url(&quot;#SvgjsMask1512&quot;)" fill="none"><path d="M109.49 -96.92L224.67 -30.42L224.67 102.58L109.49 169.08L-5.69 102.58L-5.69 -30.42zM339.86 -96.92L455.04 -30.42L455.04 102.58L339.86 169.08L224.67 102.58L224.67 -30.42zM339.86 302.08L455.04 368.58L455.04 501.58L339.86 568.08L224.67 501.58L224.67 368.58zM339.86 701.08L455.04 767.58L455.04 900.58L339.86 967.08L224.67 900.58L224.67 767.58zM455.04 1299.58L570.23 1366.08L570.23 1499.08L455.04 1565.58L339.86 1499.08L339.86 1366.08zM570.23 701.08L685.41 767.58L685.41 900.58L570.23 967.08L455.04 900.58L455.04 767.58zM570.23 1100.08L685.41 1166.58L685.41 1299.58L570.23 1366.08L455.04 1299.58L455.04 1166.58zM570.23 1499.08L685.41 1565.58L685.41 1698.58L570.23 1765.08L455.04 1698.58L455.04 1565.58zM685.41 1698.58L800.6 1765.08L800.6 1898.08L685.41 1964.58L570.23 1898.08L570.23 1765.08zM915.78 102.58L1030.97 169.08L1030.97 302.08L915.78 368.58L800.6 302.08L800.6 169.08zM800.6 302.08L915.78 368.58L915.78 501.58L800.6 568.08L685.41 501.58L685.41 368.58zM915.78 501.58L1030.97 568.08L1030.97 701.08L915.78 767.58L800.6 701.08L800.6 568.08zM915.78 900.58L1030.97 967.08L1030.97 1100.08L915.78 1166.58L800.6 1100.08L800.6 967.08zM1146.15 102.58L1261.34 169.08L1261.34 302.08L1146.15 368.58L1030.97 302.08L1030.97 169.08zM1030.97 302.08L1146.15 368.58L1146.15 501.58L1030.97 568.08L915.78 501.58L915.78 368.58zM1261.34 -96.92L1376.52 -30.42L1376.52 102.58L1261.34 169.08L1146.15 102.58L1146.15 -30.42zM1376.52 501.58L1491.71 568.08L1491.71 701.08L1376.52 767.58L1261.34 701.08L1261.34 568.08zM1261.34 701.08L1376.52 767.58L1376.52 900.58L1261.34 967.08L1146.15 900.58L1146.15 767.58zM1261.34 1100.08L1376.52 1166.58L1376.52 1299.58L1261.34 1366.08L1146.15 1299.58L1146.15 1166.58zM1491.71 302.08L1606.89 368.58L1606.89 501.58L1491.71 568.08L1376.52 501.58L1376.52 368.58zM1606.89 501.58L1722.08 568.08L1722.08 701.08L1606.89 767.58L1491.71 701.08L1491.71 568.08zM1606.89 1299.58L1722.08 1366.08L1722.08 1499.08L1606.89 1565.58L1491.71 1499.08L1491.71 1366.08zM1722.08 1100.08L1837.26 1166.58L1837.26 1299.58L1722.08 1366.08L1606.89 1299.58L1606.89 1166.58zM1837.26 1299.58L1952.44 1366.08L1952.44 1499.08L1837.26 1565.58L1722.08 1499.08L1722.08 1366.08zM2067.63 501.58L2182.81 568.08L2182.81 701.08L2067.63 767.58L1952.44 701.08L1952.44 568.08zM1952.44 1499.08L2067.63 1565.58L2067.63 1698.58L1952.44 1765.08L1837.26 1698.58L1837.26 1565.58z" stroke="rgba(161, 255, 0, 1)" stroke-width="2"></path><path d="M96.19 -96.92 a13.3 13.3 0 1 0 26.6 0 a13.3 13.3 0 1 0 -26.6 0zM211.37 -30.42 a13.3 13.3 0 1 0 26.6 0 a13.3 13.3 0 1 0 -26.6 0zM211.37 102.58 a13.3 13.3 0 1 0 26.6 0 a13.3 13.3 0 1 0 -26.6 0zM96.19 169.08 a13.3 13.3 0 1 0 26.6 0 a13.3 13.3 0 1 0 -26.6 0zM-18.99 102.58 a13.3 13.3 0 1 0 26.6 0 a13.3 13.3 0 1 0 -26.6 0zM-18.99 -30.42 a13.3 13.3 0 1 0 26.6 0 a13.3 13.3 0 1 0 -26.6 0zM326.56 -96.92 a13.3 13.3 0 1 0 26.6 0 a13.3 13.3 0 1 0 -26.6 0zM441.74 -30.42 a13.3 13.3 0 1 0 26.6 0 a13.3 13.3 0 1 0 -26.6 0zM441.74 102.58 a13.3 13.3 0 1 0 26.6 0 a13.3 13.3 0 1 0 -26.6 0zM326.56 169.08 a13.3 13.3 0 1 0 26.6 0 a13.3 13.3 0 1 0 -26.6 0zM326.56 302.08 a13.3 13.3 0 1 0 26.6 0 a13.3 13.3 0 1 0 -26.6 0zM441.74 368.58 a13.3 13.3 0 1 0 26.6 0 a13.3 13.3 0 1 0 -26.6 0zM441.74 501.58 a13.3 13.3 0 1 0 26.6 0 a13.3 13.3 0 1 0 -26.6 0zM326.56 568.08 a13.3 13.3 0 1 0 26.6 0 a13.3 13.3 0 1 0 -26.6 0zM211.37 501.58 a13.3 13.3 0 1 0 26.6 0 a13.3 13.3 0 1 0 -26.6 0zM211.37 368.58 a13.3 13.3 0 1 0 26.6 0 a13.3 13.3 0 1 0 -26.6 0zM326.56 701.08 a13.3 13.3 0 1 0 26.6 0 a13.3 13.3 0 1 0 -26.6 0zM441.74 767.58 a13.3 13.3 0 1 0 26.6 0 a13.3 13.3 0 1 0 -26.6 0zM441.74 900.58 a13.3 13.3 0 1 0 26.6 0 a13.3 13.3 0 1 0 -26.6 0zM326.56 967.08 a13.3 13.3 0 1 0 26.6 0 a13.3 13.3 0 1 0 -26.6 0zM211.37 900.58 a13.3 13.3 0 1 0 26.6 0 a13.3 13.3 0 1 0 -26.6 0zM211.37 767.58 a13.3 13.3 0 1 0 26.6 0 a13.3 13.3 0 1 0 -26.6 0zM441.74 1299.58 a13.3 13.3 0 1 0 26.6 0 a13.3 13.3 0 1 0 -26.6 0zM556.93 1366.08 a13.3 13.3 0 1 0 26.6 0 a13.3 13.3 0 1 0 -26.6 0zM556.93 1499.08 a13.3 13.3 0 1 0 26.6 0 a13.3 13.3 0 1 0 -26.6 0zM441.74 1565.58 a13.3 13.3 0 1 0 26.6 0 a13.3 13.3 0 1 0 -26.6 0zM326.56 1499.08 a13.3 13.3 0 1 0 26.6 0 a13.3 13.3 0 1 0 -26.6 0zM326.56 1366.08 a13.3 13.3 0 1 0 26.6 0 a13.3 13.3 0 1 0 -26.6 0zM556.93 701.08 a13.3 13.3 0 1 0 26.6 0 a13.3 13.3 0 1 0 -26.6 0zM672.11 767.58 a13.3 13.3 0 1 0 26.6 0 a13.3 13.3 0 1 0 -26.6 0zM672.11 900.58 a13.3 13.3 0 1 0 26.6 0 a13.3 13.3 0 1 0 -26.6 0zM556.93 967.08 a13.3 13.3 0 1 0 26.6 0 a13.3 13.3 0 1 0 -26.6 0zM556.93 1100.08 a13.3 13.3 0 1 0 26.6 0 a13.3 13.3 0 1 0 -26.6 0zM672.11 1166.58 a13.3 13.3 0 1 0 26.6 0 a13.3 13.3 0 1 0 -26.6 0zM672.11 1299.58 a13.3 13.3 0 1 0 26.6 0 a13.3 13.3 0 1 0 -26.6 0zM441.74 1166.58 a13.3 13.3 0 1 0 26.6 0 a13.3 13.3 0 1 0 -26.6 0zM672.11 1565.58 a13.3 13.3 0 1 0 26.6 0 a13.3 13.3 0 1 0 -26.6 0zM672.11 1698.58 a13.3 13.3 0 1 0 26.6 0 a13.3 13.3 0 1 0 -26.6 0zM556.93 1765.08 a13.3 13.3 0 1 0 26.6 0 a13.3 13.3 0 1 0 -26.6 0zM441.74 1698.58 a13.3 13.3 0 1 0 26.6 0 a13.3 13.3 0 1 0 -26.6 0zM787.3 1765.08 a13.3 13.3 0 1 0 26.6 0 a13.3 13.3 0 1 0 -26.6 0zM787.3 1898.08 a13.3 13.3 0 1 0 26.6 0 a13.3 13.3 0 1 0 -26.6 0zM672.11 1964.58 a13.3 13.3 0 1 0 26.6 0 a13.3 13.3 0 1 0 -26.6 0zM556.93 1898.08 a13.3 13.3 0 1 0 26.6 0 a13.3 13.3 0 1 0 -26.6 0zM902.48 102.58 a13.3 13.3 0 1 0 26.6 0 a13.3 13.3 0 1 0 -26.6 0zM1017.67 169.08 a13.3 13.3 0 1 0 26.6 0 a13.3 13.3 0 1 0 -26.6 0zM1017.67 302.08 a13.3 13.3 0 1 0 26.6 0 a13.3 13.3 0 1 0 -26.6 0zM902.48 368.58 a13.3 13.3 0 1 0 26.6 0 a13.3 13.3 0 1 0 -26.6 0zM787.3 302.08 a13.3 13.3 0 1 0 26.6 0 a13.3 13.3 0 1 0 -26.6 0zM787.3 169.08 a13.3 13.3 0 1 0 26.6 0 a13.3 13.3 0 1 0 -26.6 0zM902.48 501.58 a13.3 13.3 0 1 0 26.6 0 a13.3 13.3 0 1 0 -26.6 0zM787.3 568.08 a13.3 13.3 0 1 0 26.6 0 a13.3 13.3 0 1 0 -26.6 0zM672.11 501.58 a13.3 13.3 0 1 0 26.6 0 a13.3 13.3 0 1 0 -26.6 0zM672.11 368.58 a13.3 13.3 0 1 0 26.6 0 a13.3 13.3 0 1 0 -26.6 0zM1017.67 568.08 a13.3 13.3 0 1 0 26.6 0 a13.3 13.3 0 1 0 -26.6 0zM1017.67 701.08 a13.3 13.3 0 1 0 26.6 0 a13.3 13.3 0 1 0 -26.6 0zM902.48 767.58 a13.3 13.3 0 1 0 26.6 0 a13.3 13.3 0 1 0 -26.6 0zM787.3 701.08 a13.3 13.3 0 1 0 26.6 0 a13.3 13.3 0 1 0 -26.6 0zM902.48 900.58 a13.3 13.3 0 1 0 26.6 0 a13.3 13.3 0 1 0 -26.6 0zM1017.67 967.08 a13.3 13.3 0 1 0 26.6 0 a13.3 13.3 0 1 0 -26.6 0zM1017.67 1100.08 a13.3 13.3 0 1 0 26.6 0 a13.3 13.3 0 1 0 -26.6 0zM902.48 1166.58 a13.3 13.3 0 1 0 26.6 0 a13.3 13.3 0 1 0 -26.6 0zM787.3 1100.08 a13.3 13.3 0 1 0 26.6 0 a13.3 13.3 0 1 0 -26.6 0zM787.3 967.08 a13.3 13.3 0 1 0 26.6 0 a13.3 13.3 0 1 0 -26.6 0zM1132.85 102.58 a13.3 13.3 0 1 0 26.6 0 a13.3 13.3 0 1 0 -26.6 0zM1248.04 169.08 a13.3 13.3 0 1 0 26.6 0 a13.3 13.3 0 1 0 -26.6 0zM1248.04 302.08 a13.3 13.3 0 1 0 26.6 0 a13.3 13.3 0 1 0 -26.6 0zM1132.85 368.58 a13.3 13.3 0 1 0 26.6 0 a13.3 13.3 0 1 0 -26.6 0zM1132.85 501.58 a13.3 13.3 0 1 0 26.6 0 a13.3 13.3 0 1 0 -26.6 0zM1248.04 -96.92 a13.3 13.3 0 1 0 26.6 0 a13.3 13.3 0 1 0 -26.6 0zM1363.22 -30.42 a13.3 13.3 0 1 0 26.6 0 a13.3 13.3 0 1 0 -26.6 0zM1363.22 102.58 a13.3 13.3 0 1 0 26.6 0 a13.3 13.3 0 1 0 -26.6 0zM1132.85 -30.42 a13.3 13.3 0 1 0 26.6 0 a13.3 13.3 0 1 0 -26.6 0zM1363.22 501.58 a13.3 13.3 0 1 0 26.6 0 a13.3 13.3 0 1 0 -26.6 0zM1478.41 568.08 a13.3 13.3 0 1 0 26.6 0 a13.3 13.3 0 1 0 -26.6 0zM1478.41 701.08 a13.3 13.3 0 1 0 26.6 0 a13.3 13.3 0 1 0 -26.6 0zM1363.22 767.58 a13.3 13.3 0 1 0 26.6 0 a13.3 13.3 0 1 0 -26.6 0zM1248.04 701.08 a13.3 13.3 0 1 0 26.6 0 a13.3 13.3 0 1 0 -26.6 0zM1248.04 568.08 a13.3 13.3 0 1 0 26.6 0 a13.3 13.3 0 1 0 -26.6 0zM1363.22 900.58 a13.3 13.3 0 1 0 26.6 0 a13.3 13.3 0 1 0 -26.6 0zM1248.04 967.08 a13.3 13.3 0 1 0 26.6 0 a13.3 13.3 0 1 0 -26.6 0zM1132.85 900.58 a13.3 13.3 0 1 0 26.6 0 a13.3 13.3 0 1 0 -26.6 0zM1132.85 767.58 a13.3 13.3 0 1 0 26.6 0 a13.3 13.3 0 1 0 -26.6 0zM1248.04 1100.08 a13.3 13.3 0 1 0 26.6 0 a13.3 13.3 0 1 0 -26.6 0zM1363.22 1166.58 a13.3 13.3 0 1 0 26.6 0 a13.3 13.3 0 1 0 -26.6 0zM1363.22 1299.58 a13.3 13.3 0 1 0 26.6 0 a13.3 13.3 0 1 0 -26.6 0zM1248.04 1366.08 a13.3 13.3 0 1 0 26.6 0 a13.3 13.3 0 1 0 -26.6 0zM1132.85 1299.58 a13.3 13.3 0 1 0 26.6 0 a13.3 13.3 0 1 0 -26.6 0zM1132.85 1166.58 a13.3 13.3 0 1 0 26.6 0 a13.3 13.3 0 1 0 -26.6 0zM1478.41 302.08 a13.3 13.3 0 1 0 26.6 0 a13.3 13.3 0 1 0 -26.6 0zM1593.59 368.58 a13.3 13.3 0 1 0 26.6 0 a13.3 13.3 0 1 0 -26.6 0zM1593.59 501.58 a13.3 13.3 0 1 0 26.6 0 a13.3 13.3 0 1 0 -26.6 0zM1363.22 368.58 a13.3 13.3 0 1 0 26.6 0 a13.3 13.3 0 1 0 -26.6 0zM1708.78 568.08 a13.3 13.3 0 1 0 26.6 0 a13.3 13.3 0 1 0 -26.6 0zM1708.78 701.08 a13.3 13.3 0 1 0 26.6 0 a13.3 13.3 0 1 0 -26.6 0zM1593.59 767.58 a13.3 13.3 0 1 0 26.6 0 a13.3 13.3 0 1 0 -26.6 0zM1593.59 1299.58 a13.3 13.3 0 1 0 26.6 0 a13.3 13.3 0 1 0 -26.6 0zM1708.78 1366.08 a13.3 13.3 0 1 0 26.6 0 a13.3 13.3 0 1 0 -26.6 0zM1708.78 1499.08 a13.3 13.3 0 1 0 26.6 0 a13.3 13.3 0 1 0 -26.6 0zM1593.59 1565.58 a13.3 13.3 0 1 0 26.6 0 a13.3 13.3 0 1 0 -26.6 0zM1478.41 1499.08 a13.3 13.3 0 1 0 26.6 0 a13.3 13.3 0 1 0 -26.6 0zM1478.41 1366.08 a13.3 13.3 0 1 0 26.6 0 a13.3 13.3 0 1 0 -26.6 0zM1708.78 1100.08 a13.3 13.3 0 1 0 26.6 0 a13.3 13.3 0 1 0 -26.6 0zM1823.96 1166.58 a13.3 13.3 0 1 0 26.6 0 a13.3 13.3 0 1 0 -26.6 0zM1823.96 1299.58 a13.3 13.3 0 1 0 26.6 0 a13.3 13.3 0 1 0 -26.6 0zM1593.59 1166.58 a13.3 13.3 0 1 0 26.6 0 a13.3 13.3 0 1 0 -26.6 0zM1939.14 1366.08 a13.3 13.3 0 1 0 26.6 0 a13.3 13.3 0 1 0 -26.6 0zM1939.14 1499.08 a13.3 13.3 0 1 0 26.6 0 a13.3 13.3 0 1 0 -26.6 0zM1823.96 1565.58 a13.3 13.3 0 1 0 26.6 0 a13.3 13.3 0 1 0 -26.6 0zM2054.33 501.58 a13.3 13.3 0 1 0 26.6 0 a13.3 13.3 0 1 0 -26.6 0zM2169.51 568.08 a13.3 13.3 0 1 0 26.6 0 a13.3 13.3 0 1 0 -26.6 0zM2169.51 701.08 a13.3 13.3 0 1 0 26.6 0 a13.3 13.3 0 1 0 -26.6 0zM2054.33 767.58 a13.3 13.3 0 1 0 26.6 0 a13.3 13.3 0 1 0 -26.6 0zM1939.14 701.08 a13.3 13.3 0 1 0 26.6 0 a13.3 13.3 0 1 0 -26.6 0zM1939.14 568.08 a13.3 13.3 0 1 0 26.6 0 a13.3 13.3 0 1 0 -26.6 0zM2054.33 1565.58 a13.3 13.3 0 1 0 26.6 0 a13.3 13.3 0 1 0 -26.6 0zM2054.33 1698.58 a13.3 13.3 0 1 0 26.6 0 a13.3 13.3 0 1 0 -26.6 0zM1939.14 1765.08 a13.3 13.3 0 1 0 26.6 0 a13.3 13.3 0 1 0 -26.6 0zM1823.96 1698.58 a13.3 13.3 0 1 0 26.6 0 a13.3 13.3 0 1 0 -26.6 0z" fill="rgba(161, 255, 0, 1)"></path><path d="M132.11 783.62L201.4 823.62L201.4 903.62L132.11 943.62L62.83 903.62L62.83 823.62zM132.11 1263.62L201.4 1303.62L201.4 1383.62L132.11 1423.62L62.83 1383.62L62.83 1303.62zM270.68 63.62L339.97 103.62L339.97 183.62L270.68 223.62L201.4 183.62L201.4 103.62zM201.4 903.62L270.68 943.62L270.68 1023.62L201.4 1063.62L132.11 1023.62L132.11 943.62zM270.68 1263.62L339.97 1303.62L339.97 1383.62L270.68 1423.62L201.4 1383.62L201.4 1303.62zM201.4 1623.62L270.68 1663.62L270.68 1743.62L201.4 1783.62L132.11 1743.62L132.11 1663.62zM409.25 303.62L478.53 343.62L478.53 423.62L409.25 463.62L339.97 423.62L339.97 343.62zM409.25 543.62L478.53 583.62L478.53 663.62L409.25 703.62L339.97 663.62L339.97 583.62zM339.97 1383.62L409.25 1423.62L409.25 1503.62L339.97 1543.62L270.68 1503.62L270.68 1423.62zM409.25 1743.62L478.53 1783.62L478.53 1863.62L409.25 1903.62L339.97 1863.62L339.97 1783.62zM547.82 63.62L617.1 103.62L617.1 183.62L547.82 223.62L478.53 183.62L478.53 103.62zM478.53 663.62L547.82 703.62L547.82 783.62L478.53 823.62L409.25 783.62L409.25 703.62zM686.39 303.62L755.67 343.62L755.67 423.62L686.39 463.62L617.1 423.62L617.1 343.62zM617.1 423.62L686.39 463.62L686.39 543.62L617.1 583.62L547.82 543.62L547.82 463.62zM617.1 663.62L686.39 703.62L686.39 783.62L617.1 823.62L547.82 783.62L547.82 703.62zM686.39 1023.62L755.67 1063.62L755.67 1143.62L686.39 1183.62L617.1 1143.62L617.1 1063.62zM617.1 1143.62L686.39 1183.62L686.39 1263.62L617.1 1303.62L547.82 1263.62L547.82 1183.62zM617.1 1383.62L686.39 1423.62L686.39 1503.62L617.1 1543.62L547.82 1503.62L547.82 1423.62zM894.24 663.62L963.52 703.62L963.52 783.62L894.24 823.62L824.95 783.62L824.95 703.62zM963.52 783.62L1032.81 823.62L1032.81 903.62L963.52 943.62L894.24 903.62L894.24 823.62zM1102.09 543.62L1171.37 583.62L1171.37 663.62L1102.09 703.62L1032.81 663.62L1032.81 583.62zM1032.81 1143.62L1102.09 1183.62L1102.09 1263.62L1032.81 1303.62L963.52 1263.62L963.52 1183.62zM1171.37 -56.38L1240.66 -16.38L1240.66 63.62L1171.37 103.62L1102.09 63.62L1102.09 -16.38zM1240.66 543.62L1309.94 583.62L1309.94 663.62L1240.66 703.62L1171.37 663.62L1171.37 583.62zM1240.66 783.62L1309.94 823.62L1309.94 903.62L1240.66 943.62L1171.37 903.62L1171.37 823.62zM1171.37 1383.62L1240.66 1423.62L1240.66 1503.62L1171.37 1543.62L1102.09 1503.62L1102.09 1423.62zM1309.94 -56.38L1379.23 -16.38L1379.23 63.62L1309.94 103.62L1240.66 63.62L1240.66 -16.38zM1379.23 303.62L1448.51 343.62L1448.51 423.62L1379.23 463.62L1309.94 423.62L1309.94 343.62zM1309.94 423.62L1379.23 463.62L1379.23 543.62L1309.94 583.62L1240.66 543.62L1240.66 463.62zM1309.94 663.62L1379.23 703.62L1379.23 783.62L1309.94 823.62L1240.66 783.62L1240.66 703.62zM1309.94 1143.62L1379.23 1183.62L1379.23 1263.62L1309.94 1303.62L1240.66 1263.62L1240.66 1183.62zM1379.23 1263.62L1448.51 1303.62L1448.51 1383.62L1379.23 1423.62L1309.94 1383.62L1309.94 1303.62zM1517.79 1023.62L1587.08 1063.62L1587.08 1143.62L1517.79 1183.62L1448.51 1143.62L1448.51 1063.62zM1517.79 1503.62L1587.08 1543.62L1587.08 1623.62L1517.79 1663.62L1448.51 1623.62L1448.51 1543.62zM1656.36 783.62L1725.65 823.62L1725.65 903.62L1656.36 943.62L1587.08 903.62L1587.08 823.62zM1587.08 903.62L1656.36 943.62L1656.36 1023.62L1587.08 1063.62L1517.79 1023.62L1517.79 943.62zM1794.93 63.62L1864.21 103.62L1864.21 183.62L1794.93 223.62L1725.65 183.62L1725.65 103.62zM1794.93 303.62L1864.21 343.62L1864.21 423.62L1794.93 463.62L1725.65 423.62L1725.65 343.62zM1794.93 543.62L1864.21 583.62L1864.21 663.62L1794.93 703.62L1725.65 663.62L1725.65 583.62zM1725.65 903.62L1794.93 943.62L1794.93 1023.62L1725.65 1063.62L1656.36 1023.62L1656.36 943.62zM1794.93 1023.62L1864.21 1063.62L1864.21 1143.62L1794.93 1183.62L1725.65 1143.62L1725.65 1063.62zM1725.65 1143.62L1794.93 1183.62L1794.93 1263.62L1725.65 1303.62L1656.36 1263.62L1656.36 1183.62zM1794.93 1263.62L1864.21 1303.62L1864.21 1383.62L1794.93 1423.62L1725.65 1383.62L1725.65 1303.62zM1933.5 1503.62L2002.78 1543.62L2002.78 1623.62L1933.5 1663.62L1864.21 1623.62L1864.21 1543.62z" stroke="rgba(113, 255, 0, 1)" stroke-width="2"></path></g><defs><mask id="SvgjsMask1512"><rect width="1920" height="1800" fill="#ffffff"></rect></mask></defs></svg>